{
  "accessors": [
    {
      "bufferView": 2,
      "componentType": 5126,
      "count": 33816,
      "max": [
        1.5065699815750122,
        13.339756011962891,
        3.6204469203948975
      ],
      "min": [
        0.32226800918579102,
        11.678861618041992,
        -1.2204259634017944
      ],
      "type": "VEC3"
    },
    {
      "bufferView": 2,
      "byteOffset": 405792,
      "componentType": 5126,
      "count": 33816,
      "max": [
        0.99997562170028687,
        0.99999737739562988,
        0.99983835220336914
      ],
      "min": [
        -0.99993366003036499,
        -0.99994075298309326,
        -0.99996465444564819
      ],
      "type": "VEC3"
    },
    {
      "bufferView": 3,
      "componentType": 5126,
      "count": 33816,
      "max": [
        0.99987548589706421,
        0.99979406595230103,
        0.9999997615814209,
        1
      ],
      "min": [
        -0.99998223781585693,
        -0.99997979402542114,
        -0.99999481439590454,
        -1
      ],
      "type": "VEC4"
    },
    {
      "bufferView": 3,
      "byteOffset": 541056,
      "componentType": 5126,
      "count": 33816,
      "max": [
        0.58431375026702881,
        0.55686277151107788,
        0.57647061347961426,
        1
      ],
      "min": [
        0.094117648899555206,
        0.090196080505847931,
        0.10196078568696976,
        1
      ],
      "type": "VEC4"
    },
    {
      "bufferView": 1,
      "componentType": 5126,
      "count": 33816,
      "max": [
        0.99008399248123169,
        0.99988901615142822
      ],
      "min": [
        6.7000000854022801e-05,
        8.7000000348780304e-05
      ],
      "type": "VEC2"
    },
    {
      "bufferView": 0,
      "componentType": 5125,
      "count": 192000,
      "max": [
        33815
      ],
      "min": [
        0
      ],
      "type": "SCALAR"
    }
  ],
  "asset": {
    "extras": {
      "author": "Minneapolis Institute of Art (https://sketchfab.com/artsmia)",
      "license": "CC0-1.0 (http://creativecommons.org/publicdomain/zero/1.0/)",
      "source": "https://sketchfab.com/3d-models/thoth-c-644-bce-30-ce-394a94722862460e8cefab54b4bed7bf",
      "title": "Thoth, c. 644 BCE - 30 CE"
    },
    "generator": "Sketchfab-7.80.0",
    "version": "2.0"
  },
  "bufferViews": [
    {
      "buffer": 0,
      "byteLength": 768000,
      "byteOffset": 0,
      "name": "floatBufferViews",
      "target": 34963
    },
    {
      "buffer": 0,
      "byteLength": 270528,
      "byteOffset": 768000,
      "byteStride": 8,
      "name": "floatBufferViews",
      "target": 34962
    },
    {
      "buffer": 0,
      "byteLength": 811584,
      "byteOffset": 1038528,
      "byteStride": 12,
      "name": "floatBufferViews",
      "target": 34962
    },
    {
      "buffer": 0,
      "byteLength": 1082112,
      "byteOffset": 1850112,
      "byteStride": 16,
      "name": "floatBufferViews",
      "target": 34962
    }
  ],
  "buffers": [
    {
      "byteLength": 2932224,
      "uri": "scene.bin"
    }
  ],
  "images": [
    {
      "uri": "textures/180810_mia348_000372_OBJ_baseColor.png"
    },
    {
      "uri": "textures/180810_mia348_000372_OBJ_normal.png"
    }
  ],
  "materials": [
    {
      "doubleSided": true,
      "emissiveFactor": [
        0,
        0,
        0
      ],
      "name": "180810_mia348_000372_OBJ",
      "normalTexture": {
        "index": 1,
        "scale": 1,
        "texCoord": 0
      },
      "pbrMetallicRoughness": {
        "baseColorFactor": [
          0.77610518289999997,
          0.77610518289999997,
          0.77610518289999997,
          1
        ],
        "baseColorTexture": {
          "index": 0,
          "texCoord": 0
        },
        "metallicFactor": 0,
        "roughnessFactor": 0.59999999999999998
      }
    }
  ],
  "meshes": [
    {
      "primitives": [
        {
          "attributes": {
            "COLOR_0": 3,
            "NORMAL": 1,
            "POSITION": 0,
            "TANGENT": 2,
            "TEXCOORD_0": 4
          },
          "indices": 5,
          "material": 0,
          "mode": 4
        }
      ]
    }
  ],
  "nodes": [
    {
      "children": [
        1
      ],
      "name": "RootNode (gltf orientation matrix)",
      "rotation": [
        -0.70710678118654746,
        -0,
        -0,
        0.70710678118654757
      ]
    },
    {
      "children": [
        2
      ],
      "matrix": [
        1,
        0,
        0,
        0,
        0,
        1,
        0,
        0,
        0,
        0,
        1,
        0,
        0.096121683716773987,
        -0.89580792188644409,
        0.03311503678560257,
        1
      ],
      "name": "RootNode (model correction matrix)"
    },
    {
      "children": [
        3
      ],
      "name": "180810_mia348_000372_OBJ.obj.cleaner.materialmerger.gles"
    },
    {
      "mesh": 0,
      "name": ""
    }
  ],
  "samplers": [
    {
      "magFilter": 9729,
      "minFilter": 9987,
      "wrapS": 10497,
      "wrapT": 10497
    }
  ],
  "scene": 0,
  "scenes": [
    {
      "name": "OSG_Scene",
      "nodes": [
        0
      ]
    }
  ],
  "textures": [
    {
      "sampler": 0,
      "source": 0
    },
    {
      "sampler": 0,
      "source": 1
    }
  ]
}

